<svg width="60" height="60" viewBox="0 0 60 60" fill="none" xmlns="http://www.w3.org/2000/svg">
<rect width="60" height="60" rx="20" fill="#C2C2C2" fill-opacity="0.5"/>
<path d="M22.2375 31.9625L18.75 36.95L22.5375 38.075L24.8875 41.25L28.4125 36.225" stroke="#868686" stroke-width="2" stroke-linecap="round" stroke-linejoin="round"/>
<path d="M37.7625 31.9625L41.25 36.95L37.4625 38.075L35.1125 41.25L31.5875 36.225" stroke="#868686" stroke-width="2" stroke-linecap="round" stroke-linejoin="round"/>
<path d="M39.1 27.5C39.1 28.45 38.2625 29.25 37.9875 30.1C37.7125 30.95 37.9 32.1125 37.3625 32.85C36.825 33.5875 35.675 33.75 35 34.3C34.325 34.85 33.75 35.875 32.875 36.1625C32 36.45 31.0125 35.9 30.0625 35.9C29.1125 35.9 28.1 36.4375 27.25 36.1625C26.4 35.8875 25.8625 34.825 25.125 34.3C24.3875 33.775 23.2375 33.5875 22.7 32.85C22.1625 32.1125 22.3625 30.975 22.075 30.1C21.7875 29.225 20.9 28.45 20.9 27.5C20.9 26.55 21.7375 25.75 22.0125 24.9C22.2875 24.05 22.1 22.8875 22.6375 22.15C23.175 21.4125 24.325 21.25 25.0625 20.7C25.8 20.15 26.25 19.125 27.1875 18.8375C28.125 18.55 29.05 19.1 30 19.1C30.95 19.1 31.9625 18.5625 32.8125 18.8375C33.6625 19.1125 34.2 20.175 35 20.7C35.8 21.225 36.8875 21.4125 37.425 22.15C37.9625 22.8875 37.7625 24.025 38.05 24.9C38.3375 25.775 39.1 26.55 39.1 27.5ZM30 31.25C29.2583 31.25 28.5333 31.0301 27.9166 30.618C27.2999 30.206 26.8193 29.6203 26.5354 28.9351C26.2516 28.2498 26.1774 27.4958 26.322 26.7684C26.4667 26.041 26.8239 25.3728 27.3483 24.8484C27.8728 24.3239 28.541 23.9668 29.2684 23.8221C29.9958 23.6774 30.7498 23.7516 31.4351 24.0355C32.1203 24.3193 32.706 24.7999 33.118 25.4166C33.5301 26.0333 33.75 26.7583 33.75 27.5C33.75 28.4946 33.3549 29.4484 32.6516 30.1517C31.9484 30.8549 30.9946 31.25 30 31.25Z" stroke="#868686" stroke-width="2" stroke-linecap="round" stroke-linejoin="round"/>
</svg>
