<svg width="100" height="100" viewBox="0 0 100 100" fill="none" xmlns="http://www.w3.org/2000/svg">
<rect width="100" height="100" rx="50" fill="#C2C2C2" fill-opacity="0.5"/>
<path fill-rule="evenodd" clip-rule="evenodd" d="M42.3838 62.5H26.875C24.4588 62.5 22.5 60.5412 22.5 58.125V29.375C22.5 26.9588 24.4588 25 26.875 25H73.125C75.5412 25 77.5 26.9588 77.5 29.375V58.125C77.5 60.5412 75.5412 62.5 73.125 62.5H57.6157C58.0424 65.9376 59.6272 69.1304 62.0374 71.8921C62.5209 72.4461 62.6359 73.2315 62.3317 73.9009C62.0274 74.5702 61.36 75 60.6247 75H39.3747C38.6395 75 37.972 74.5702 37.6678 73.9009C37.3635 73.2315 37.4786 72.4461 37.9621 71.8921C40.3723 69.1304 41.9571 65.9376 42.3838 62.5ZM73.75 29.375V58.125C73.75 58.4702 73.4702 58.75 73.125 58.75H26.875C26.5298 58.75 26.25 58.4702 26.25 58.125V29.375C26.25 29.0298 26.5298 28.75 26.875 28.75H73.125C73.4702 28.75 73.75 29.0298 73.75 29.375ZM53.8423 62.5C54.1561 65.6654 55.2523 68.6125 56.9002 71.25H43.0993C44.7471 68.6125 45.8434 65.6654 46.1571 62.5H53.8423Z" fill="#868686"/>
</svg>
