<svg width="60" height="60" viewBox="0 0 60 60" fill="none" xmlns="http://www.w3.org/2000/svg">
<rect width="60" height="60" rx="20" fill="#C2C2C2" fill-opacity="0.5"/>
<path d="M35 30L27.5 35V25L35 30ZM30 18.75C27.775 18.75 25.5999 19.4098 23.7498 20.646C21.8998 21.8821 20.4578 23.6391 19.6064 25.6948C18.7549 27.7505 18.5321 30.0125 18.9662 32.1948C19.4003 34.3771 20.4717 36.3816 22.0451 37.955C23.6184 39.5283 25.623 40.5998 27.8052 41.0338C29.9875 41.4679 32.2495 41.2451 34.3052 40.3936C36.3609 39.5422 38.1179 38.1002 39.354 36.2502C40.5902 34.4001 41.25 32.225 41.25 30C41.25 27.0163 40.0647 24.1548 37.955 22.045C35.8452 19.9353 32.9837 18.75 30 18.75V18.75Z" stroke="#868686" stroke-width="2" stroke-linecap="round" stroke-linejoin="round"/>
</svg>
