<svg width="100" height="100" viewBox="0 0 100 100" fill="none" xmlns="http://www.w3.org/2000/svg">
<rect width="100" height="100" rx="50" fill="#C2C2C2" fill-opacity="0.5"/>
<path d="M27.5 31.125C28.8436 29.9102 30.4135 28.9723 32.12 28.365C33.8265 27.7577 35.636 27.4929 37.4449 27.5858C39.2538 27.6787 41.0267 28.1274 42.662 28.9063C44.2973 29.6852 45.7629 30.779 46.975 32.125C48.7773 34.0935 49.7644 36.6733 49.7366 39.3421C49.7087 42.0109 48.668 44.5695 46.825 46.5C45.2588 48.3145 43.0368 49.4336 40.6465 49.6117C38.2561 49.7898 35.8928 49.0124 34.075 47.45C30.15 43.525 31.825 37.5 27.5 31.125ZM42.2 49.275L63.975 71.025C64.9118 71.9563 66.1791 72.479 67.5 72.479C68.8209 72.479 70.0882 71.9563 71.025 71.025C71.9563 70.0882 72.479 68.8209 72.479 67.5C72.479 66.1791 71.9563 64.9118 71.025 63.975L49.275 42.2C48.8171 43.821 47.9572 45.3001 46.775 46.5C45.501 47.7867 43.9297 48.7397 42.2 49.275V49.275Z" stroke="#868686" stroke-width="4" stroke-linecap="round" stroke-linejoin="round"/>
</svg>
