<svg width="100" height="100" viewBox="0 0 100 100" fill="none" xmlns="http://www.w3.org/2000/svg">
<rect width="100" height="100" rx="50" fill="#C2C2C2" fill-opacity="0.5"/>
<path d="M52.5 62.5H47.5M62.5 72.5H37.5C36.837 72.5 36.2011 72.2366 35.7322 71.7678C35.2634 71.2989 35 70.663 35 70V30C35 29.337 35.2634 28.7011 35.7322 28.2322C36.2011 27.7634 36.837 27.5 37.5 27.5H62.5C63.163 27.5 63.7989 27.7634 64.2678 28.2322C64.7366 28.7011 65 29.337 65 30V70C65 70.663 64.7366 71.2989 64.2678 71.7678C63.7989 72.2366 63.163 72.5 62.5 72.5ZM55 27.5H45L46.25 32.5H53.75L55 27.5Z" stroke="#868686" stroke-width="4" stroke-linecap="round" stroke-linejoin="round"/>
</svg>
