<svg width="100" height="100" viewBox="0 0 100 100" fill="none" xmlns="http://www.w3.org/2000/svg">
<rect width="100" height="100" rx="50" fill="#C2C2C2" fill-opacity="0.5"/>
<path d="M72.5 37.5V67.5C72.5 68.163 72.2366 68.7989 71.7678 69.2678C71.2989 69.7366 70.663 70 70 70H30C29.337 70 28.7011 69.7366 28.2322 69.2678C27.7634 68.7989 27.5 68.163 27.5 67.5V37.5C27.5 36.837 27.7634 36.2011 28.2322 35.7322C28.7011 35.2634 29.337 35 30 35H40L41.8 31.375C42.0097 30.9589 42.3314 30.6097 42.729 30.3667C43.1265 30.1238 43.5841 29.9968 44.05 30H55.95C56.4159 29.9968 56.8735 30.1238 57.271 30.3667C57.6686 30.6097 57.9903 30.9589 58.2 31.375L60 35H70C70.663 35 71.2989 35.2634 71.7678 35.7322C72.2366 36.2011 72.5 36.837 72.5 37.5ZM50 45C48.5166 45 47.0666 45.4399 45.8332 46.264C44.5999 47.0881 43.6386 48.2594 43.0709 49.6299C42.5032 51.0003 42.3547 52.5083 42.6441 53.9632C42.9335 55.418 43.6478 56.7544 44.6967 57.8033C45.7456 58.8522 47.082 59.5665 48.5368 59.8559C49.9917 60.1453 51.4997 59.9968 52.8701 59.4291C54.2406 58.8614 55.4119 57.9001 56.236 56.6668C57.0601 55.4334 57.5 53.9834 57.5 52.5C57.5 50.5109 56.7098 48.6032 55.3033 47.1967C53.8968 45.7902 51.9891 45 50 45Z" stroke="#868686" stroke-width="4" stroke-linecap="round" stroke-linejoin="round"/>
</svg>
