<svg width="60" height="60" viewBox="0 0 60 60" fill="none" xmlns="http://www.w3.org/2000/svg">
<rect width="60" height="60" rx="20" fill="#C2C2C2" fill-opacity="0.5"/>
<path d="M36 22C36.2652 22 36.5196 22.1054 36.7071 22.2929C36.8946 22.4804 37 22.7348 37 23V38C37 38.2652 36.8946 38.5196 36.7071 38.7071C36.5196 38.8946 36.2652 39 36 39H24C23.7348 39 23.4804 38.8946 23.2929 38.7071C23.1054 38.5196 23 38.2652 23 38V23C23 22.7348 23.1054 22.4804 23.2929 22.2929C23.4804 22.1054 23.7348 22 24 22" stroke="#868686" stroke-width="2" stroke-linecap="round" stroke-linejoin="round"/>
<path d="M27 33H33M32 24H28C27.7348 24 27.4804 23.8946 27.2929 23.7071C27.1054 23.5196 27 23.2652 27 23V22C27 21.7348 27.1054 21.4804 27.2929 21.2929C27.4804 21.1054 27.7348 21 28 21H32C32.2652 21 32.5196 21.1054 32.7071 21.2929C32.8946 21.4804 33 21.7348 33 22V23C33 23.2652 32.8946 23.5196 32.7071 23.7071C32.5196 23.8946 32.2652 24 32 24ZM27 29H33H27Z" stroke="#868686" stroke-width="2" stroke-linecap="round" stroke-linejoin="round"/>
</svg>
