<svg width="60" height="60" viewBox="0 0 60 60" fill="none" xmlns="http://www.w3.org/2000/svg">
<rect width="60" height="60" rx="20" fill="#C2C2C2" fill-opacity="0.5"/>
<path d="M35.075 32.2125L39.9 35.55C40.2752 35.8111 40.5886 36.1513 40.818 36.5466C41.0474 36.942 41.1873 37.3829 41.2278 37.8382C41.2683 38.2935 41.2085 38.7521 41.0524 39.1818C40.8964 39.6114 40.648 40.0016 40.3248 40.3248C40.0016 40.648 39.6114 40.8964 39.1818 41.0524C38.7521 41.2085 38.2935 41.2683 37.8382 41.2278C37.3829 41.1873 36.942 41.0474 36.5466 40.818C36.1513 40.5886 35.8111 40.2752 35.55 39.9L32.2 35.0625" stroke="#868686" stroke-width="2" stroke-linecap="round" stroke-linejoin="round"/>
<path d="M27.5 36.25C32.3325 36.25 36.25 32.3325 36.25 27.5C36.25 22.6675 32.3325 18.75 27.5 18.75C22.6675 18.75 18.75 22.6675 18.75 27.5C18.75 32.3325 22.6675 36.25 27.5 36.25Z" stroke="#868686" stroke-width="2" stroke-linecap="round" stroke-linejoin="round"/>
</svg>
