<svg width="1080" height="220" viewBox="0 0 1080 220" fill="none" xmlns="http://www.w3.org/2000/svg">
<rect width="1080" height="220" fill="white"/>
<path d="M0 0H654L424 220H0V0Z" fill="black"/>
<path d="M27.1731 52.7357L101.573 52.8507L101.553 65.4907L40.4336 65.3962L40.3802 99.9563L96.7001 100.043L96.6806 112.683L40.3606 112.596L40.2998 151.956L101.42 152.051L101.4 164.851L27 164.736L27.1731 52.7357ZM120.454 52.8799L133.734 52.9004L133.581 152.101L189.901 152.188L189.881 164.988L120.281 164.88L120.454 52.8799ZM223.603 146.16L258.467 53.0932L272.547 53.115L230.614 165.051L216.854 165.029L175.267 52.9646L189.027 52.9859L223.603 146.16ZM311.306 65.815L280.266 65.767L280.286 53.1269L355.805 53.2437L355.786 65.8837L324.586 65.8355L324.432 165.196L311.152 165.175L311.306 65.815ZM488.169 132.009C488.175 128.062 487.166 124.914 485.143 122.564C483.12 120.214 480.457 118.343 477.152 116.952C473.848 115.453 470.063 114.274 465.798 113.414C461.532 112.554 457.213 111.747 452.841 110.994C448.469 110.134 444.151 109.167 439.886 108.094C435.621 106.914 431.837 105.308 428.533 103.276C425.23 101.138 422.567 98.4138 420.546 95.104C418.524 91.7942 417.518 87.5259 417.526 82.2993C417.534 76.6459 418.608 71.8475 420.748 67.9041C422.994 63.9609 425.932 60.7655 429.563 58.3177C433.3 55.7635 437.516 53.9033 442.211 52.7372C447.013 51.5713 452.027 50.9924 457.254 51.0005C464.721 51.012 470.959 51.9817 475.97 53.9094C480.98 55.8372 484.976 58.2434 487.958 61.128C490.941 63.906 492.963 66.9491 494.024 70.2574C495.193 73.5659 495.721 76.6601 495.61 79.54L482.81 79.5202C482.919 77.9204 482.548 76.2131 481.698 74.3985C480.848 72.4771 479.41 70.7682 477.386 69.2717C475.468 67.6687 472.857 66.3314 469.552 65.2596C466.247 64.1878 462.141 63.6481 457.235 63.6405C452.861 63.6338 449.02 64.1612 445.712 65.2227C442.511 66.1778 439.789 67.5069 437.546 69.2101C435.41 70.9135 433.807 72.8844 432.737 75.1228C431.667 77.3611 431.13 79.707 431.126 82.1603C431.12 85.787 432.129 88.6685 434.152 90.805C436.176 92.9415 438.84 94.6522 442.145 95.9373C445.449 97.2225 449.234 98.2416 453.5 98.9949C457.765 99.7482 462.084 100.555 466.456 101.415C470.935 102.275 475.306 103.349 479.571 104.635C483.836 105.815 487.62 107.581 490.923 109.933C494.226 112.178 496.888 115.169 498.909 118.905C500.93 122.642 501.936 127.337 501.927 132.99C501.919 138.537 500.791 143.495 498.544 147.865C496.404 152.128 493.359 155.75 489.408 158.731C485.456 161.711 480.759 163.944 475.317 165.429C469.875 167.021 463.953 167.811 457.553 167.801C452.433 167.794 447.421 167.092 442.517 165.698C437.612 164.411 433.188 162.43 429.246 159.758C425.41 156.978 422.322 153.454 419.982 149.183C417.642 144.913 416.477 139.898 416.485 134.138L429.765 134.158C429.547 137.465 430.076 140.399 431.352 142.961C432.735 145.523 434.651 147.713 437.102 149.53C439.659 151.24 442.697 152.578 446.216 153.544C449.734 154.509 453.627 154.995 457.893 155.002C461.733 155.008 465.467 154.587 469.095 153.739C472.83 152.785 476.086 151.403 478.862 149.594C481.638 147.679 483.882 145.282 485.593 142.405C487.304 139.527 488.163 136.062 488.169 132.009ZM535.993 66.1623L504.953 66.1143L504.973 53.4743L542.733 53.5326L580.493 53.591L580.473 66.231L549.273 66.1828L549.12 165.543L535.84 165.522L535.993 66.1623ZM593.873 53.6117L607.153 53.6322L607.044 123.712C607.037 128.406 607.724 132.674 609.105 136.516C610.485 140.358 612.507 143.668 615.169 146.445C617.938 149.223 621.295 151.415 625.239 153.021C629.29 154.52 633.982 155.274 639.316 155.282C649.876 155.299 657.88 152.431 663.329 146.68C668.778 140.928 671.51 133.305 671.524 123.812L671.633 53.7319L684.913 53.7524L684.803 124.793C684.794 130.553 683.825 136.098 681.897 141.428C680.076 146.652 677.295 151.234 673.556 155.175C669.816 159.116 665.065 162.256 659.301 164.593C653.644 166.931 646.976 168.094 639.296 168.082C631.616 168.071 624.898 166.887 619.141 164.531C613.385 162.176 608.643 159.022 604.916 155.069C601.189 151.117 598.369 146.526 596.457 141.296C594.652 135.96 593.754 130.412 593.763 124.652L593.873 53.6117ZM707.485 53.7873L743.005 53.8422C751.112 53.8547 758.31 55.1993 764.599 57.8757C770.995 60.4456 776.322 64.1871 780.581 69.1004C784.947 73.9071 788.245 79.779 790.474 86.7158C792.704 93.5459 793.812 101.174 793.799 109.601C793.786 118.134 792.654 125.866 790.403 132.796C788.152 139.726 784.836 145.641 780.456 150.541C776.181 155.441 770.842 159.219 764.438 161.876C758.141 164.533 750.939 165.855 742.832 165.842L707.312 165.788L707.485 53.7873ZM742.372 153.042C747.385 153.049 752.133 152.31 756.615 150.824C761.204 149.231 765.208 146.73 768.627 143.322C772.152 139.808 774.932 135.279 776.968 129.735C779.11 124.192 780.187 117.473 780.199 109.58C780.211 101.793 779.154 95.1783 777.03 89.735C775.011 84.1852 772.245 79.7009 768.73 76.2822C765.322 72.8636 761.326 70.404 756.742 68.9035C752.264 67.2966 747.519 66.4893 742.505 66.4815L731.625 66.4647L720.745 66.4479L720.612 153.008L742.372 153.042ZM811.86 53.9487L825.14 53.9692L824.967 165.969L811.687 165.949L811.86 53.9487ZM842.811 109.677C842.825 100.93 844.17 92.9855 846.848 85.8429C849.526 78.7004 853.269 72.6261 858.076 67.6202C862.991 62.5078 868.81 58.5701 875.535 55.8071C882.366 53.0443 889.834 51.6692 897.941 51.6817C906.154 51.6944 913.672 53.0927 920.495 55.8766C927.317 58.6605 933.177 62.6163 938.076 67.7438C942.975 72.7648 946.752 78.8507 949.408 86.0015C952.17 93.1524 953.545 101.101 953.531 109.848C953.517 118.701 952.118 126.753 949.334 134.002C946.656 141.251 942.86 147.432 937.945 152.544C933.031 157.656 927.158 161.594 920.327 164.357C913.496 167.12 905.974 168.495 897.76 168.482C889.654 168.469 882.189 167.071 875.367 164.287C868.651 161.504 862.844 157.548 857.945 152.42C853.153 147.293 849.429 141.1 846.774 133.843C844.119 126.586 842.798 118.53 842.811 109.677ZM856.411 109.698C856.401 116.631 857.351 122.926 859.262 128.582C861.28 134.239 864.099 139.097 867.72 143.156C871.34 147.108 875.709 150.208 880.825 152.456C885.942 154.597 891.594 155.672 897.78 155.682C904.18 155.692 909.942 154.634 915.065 152.509C920.189 150.277 924.567 147.19 928.2 143.249C931.939 139.201 934.773 134.352 936.702 128.702C938.737 123.052 939.76 116.76 939.771 109.827C939.782 103 938.778 96.8117 936.76 91.2619C934.848 85.7123 932.029 80.9613 928.302 77.0088C924.682 72.9499 920.313 69.8497 915.196 67.7085C910.08 65.4606 904.321 64.3317 897.921 64.3218C891.735 64.3122 886.08 65.4235 880.956 67.6555C875.833 69.781 867.822 76.9152 867.822 76.9152C867.822 76.9152 861.355 85.5987 859.32 91.1422C857.391 96.6859 856.422 102.871 856.411 109.698ZM1039.73 132.861C1039.74 128.915 1038.73 125.766 1036.71 123.417C1034.69 121.067 1032.02 119.196 1028.72 117.804C1025.41 116.306 1021.62 115.127 1017.36 114.267C1013.09 113.407 1008.77 112.6 1004.4 111.847C1000.03 110.986 995.713 110.02 991.448 108.947C987.183 107.767 983.399 106.161 980.095 104.129C976.792 101.991 974.129 99.2664 972.108 95.9566C970.086 92.6468 969.079 88.3786 969.087 83.1519C969.096 77.4986 970.17 72.7001 972.31 68.7568C974.556 64.8136 977.494 61.6181 981.125 59.1703C984.862 56.6161 989.078 54.756 993.773 53.5899C998.575 52.424 1003.59 51.845 1008.82 51.8531C1016.28 51.8647 1022.52 52.8343 1027.54 54.7621C1032.55 56.6898 1036.54 59.096 1039.52 61.9806C1042.51 64.7586 1044.53 67.8018 1045.59 71.1101C1046.76 74.4186 1047.29 77.5128 1047.18 80.3926L1034.38 80.3728C1034.48 78.773 1034.11 77.0657 1033.26 75.2511C1032.41 73.3298 1030.98 71.6208 1028.95 70.1243C1027.03 68.5213 1024.42 67.184 1021.11 66.1122C1017.81 65.0404 1013.7 64.5007 1008.8 64.4932C1004.42 64.4864 1000.58 65.0138 997.274 66.0753C994.072 67.0304 991.35 68.3595 989.108 70.0627C986.972 71.7661 985.369 73.7371 984.299 75.9754C983.228 78.2137 982.691 80.5596 982.688 83.0129C982.682 86.6396 983.691 89.5211 985.714 91.6576C987.738 93.7941 990.402 95.5049 993.706 96.79C997.011 98.0751 1000.8 99.0943 1005.06 99.8475C1009.33 100.601 1013.65 101.407 1018.02 102.268C1022.5 103.128 1026.87 104.201 1031.14 105.488C1035.4 106.668 1039.19 108.434 1042.49 110.785C1045.79 113.031 1048.45 116.021 1050.47 119.758C1052.5 123.494 1053.5 128.189 1053.49 133.843C1053.48 139.389 1052.36 144.348 1050.11 148.717C1047.97 152.981 1044.92 156.603 1040.97 159.583C1037.02 162.564 1032.33 164.797 1026.88 166.282C1021.44 167.873 1015.51 168.664 1009.11 168.654C1003.99 168.646 998.983 167.945 994.079 166.551C989.174 165.263 984.75 163.283 980.808 160.61C976.972 157.831 973.884 154.306 971.544 150.036C969.204 145.766 968.038 140.75 968.047 134.991L981.327 135.011C981.109 138.317 981.638 141.252 982.914 143.814C984.296 146.376 986.213 148.565 988.664 150.382C991.221 152.093 994.259 153.431 997.777 154.397C1001.3 155.362 1005.19 155.848 1009.45 155.855C1013.29 155.861 1017.03 155.44 1020.66 154.592C1024.39 153.638 1027.65 152.256 1030.43 150.447C1033.2 148.531 1035.45 146.135 1037.16 143.257C1038.87 140.38 1039.73 136.915 1039.73 132.861Z" fill="white"/>
<path d="M743.005 53.8422L707.485 53.7873L707.312 165.788L742.832 165.842C750.939 165.855 758.141 164.533 764.438 161.876C770.842 159.219 776.181 155.441 780.456 150.541C784.836 145.641 788.152 139.726 790.403 132.796C792.654 125.866 793.786 118.134 793.799 109.601C793.812 101.174 792.704 93.5459 790.474 86.7158C788.245 79.779 784.947 73.9071 780.581 69.1004C776.322 64.1871 770.995 60.4456 764.599 57.8757C758.31 55.1993 751.112 53.8547 743.005 53.8422Z" fill="white"/>
<path d="M549 164.5V100L536 113V164.5H549Z" fill="black" stroke="black"/>
<path d="M606.39 53H593V124.019C592.991 129.779 593.889 135.328 595.694 140.664C597.606 145.893 600.426 150.485 604.153 154.437C607.88 158.39 612.622 161.544 618.378 163.899C624.135 166.255 630.853 167.439 638.533 167.45C646.213 167.462 652.881 166.299 658.538 163.961C664.302 161.624 669.053 158.484 672.793 154.543C676.532 150.602 679.313 146.02 681.134 140.796C683.062 135.465 684.031 129.92 684.04 124.16L684.15 53.1202L670.87 53.0997L670.761 123.18C670.747 132.673 668.015 140.296 662.566 146.047C657.117 151.799 649.113 154.667 638.553 154.65C633.219 154.642 628.527 153.888 624.476 152.389C620.532 150.783 617.175 148.59 614.406 145.813C611.744 143.035 609.722 139.725 608.342 135.883C606.961 132.041 606.274 127.773 606.281 123.08L606.39 53Z" fill="black"/>
<path d="M744.695 53.5003L709.175 53.4454L709.002 165.446L744.522 165.5C752.629 165.513 759.831 164.191 766.128 161.534C772.532 158.877 777.871 155.099 782.146 150.199C786.526 145.299 789.842 139.384 792.093 132.454C794.344 125.524 795.476 117.792 795.489 109.259C795.502 100.832 794.394 93.2038 792.164 86.3737C789.935 79.4369 786.637 73.5652 782.271 68.7585C778.012 63.8452 772.685 60.1037 766.289 57.5337C760 54.8573 752.802 53.5128 744.695 53.5003Z" fill="black"/>
<path d="M759.003 152.376C754.521 153.862 749.773 154.601 744.76 154.594L723 154.56L723.133 68L734.013 68.0168L744.893 68.0336C749.907 68.0414 754.652 68.8487 759.13 70.4556C763.714 71.9561 767.71 74.4156 771.118 77.8342C774.633 81.2529 777.399 85.7372 779.418 91.287C781.542 96.7303 782.599 103.345 782.587 111.132C782.575 119.025 781.498 125.744 779.356 131.287C777.32 136.831 774.54 141.36 771.015 144.874C767.596 148.282 763.592 150.783 759.003 152.376Z" fill="white"/>
<path d="M825.453 53.0205L812.173 53L812 165L825.28 165.02L825.453 53.0205Z" fill="black"/>
<path d="M846.037 87.1611C843.359 94.3037 842.014 102.248 842 110.995C841.987 119.848 843.308 127.904 845.963 135.161C848.618 142.419 852.342 148.611 857.134 153.738C862.033 158.866 867.84 162.822 874.556 165.605C881.378 168.389 888.843 169.787 896.949 169.8C905.163 169.813 912.685 168.438 919.516 165.675C926.347 162.912 932.22 158.974 937.134 153.862C942.049 148.75 945.845 142.569 948.523 135.32C951.307 128.071 952.706 120.019 952.72 111.166C952.734 102.419 951.359 94.4706 948.597 87.3197C945.941 80.1689 942.164 74.0831 937.265 69.0621C932.366 63.9346 926.506 59.9788 919.684 57.195C912.861 54.4111 905.343 53.0128 897.13 53.0001C889.023 52.9875 881.555 54.3627 874.724 57.1255C867.999 59.8884 862.18 63.8261 857.265 68.9385C852.458 73.9444 848.715 80.0186 846.037 87.1611Z" fill="black"/>
<path d="M857.851 129.26C855.94 123.604 854.99 117.309 855 110.376C855.011 103.549 855.98 97.364 857.909 91.8203C859.944 86.2768 866.411 77.5934 866.411 77.5934C866.411 77.5934 874.422 70.4593 879.545 68.3338C884.669 66.1018 890.324 64.9905 896.51 65.0001C902.91 65.01 908.669 66.1389 913.785 68.3868C918.902 70.528 923.271 73.6281 926.891 77.687C930.618 81.6395 933.437 86.3905 935.349 91.9401C937.367 97.4899 938.371 103.678 938.36 110.505C938.349 117.438 937.326 123.73 935.291 129.38C933.362 135.03 930.528 139.88 926.789 143.927C923.156 147.868 918.778 150.955 913.654 153.187C908.531 155.312 902.769 156.37 896.369 156.36C890.183 156.35 884.531 155.275 879.414 153.134C874.298 150.886 869.929 147.786 866.309 143.834C862.688 139.775 859.869 134.917 857.851 129.26Z" fill="white"/>
<path d="M1036.66 124.564C1038.68 126.913 1039.69 130.062 1039.68 134.008C1039.68 138.062 1038.82 141.527 1037.11 144.404C1035.4 147.282 1033.15 149.678 1030.38 151.594C1027.6 153.403 1024.35 154.785 1020.61 155.739C1016.98 156.587 1013.25 157.008 1009.41 157.002C1005.14 156.995 1001.25 156.509 997.73 155.544C994.212 154.578 991.174 153.24 988.617 151.529C986.166 149.712 984.249 147.523 982.867 144.961C981.591 142.399 981.062 139.464 981.28 136.158L968 136.138C967.991 141.897 969.157 146.913 971.497 151.183C973.837 155.453 976.925 158.978 980.761 161.757C984.703 164.43 989.127 166.41 994.032 167.698C998.936 169.092 1003.95 169.793 1009.07 169.801C1015.47 169.811 1021.39 169.02 1026.83 167.429C1032.28 165.944 1036.97 163.711 1040.92 160.73C1044.87 157.75 1047.92 154.128 1050.06 149.864C1052.31 145.495 1053.43 140.536 1053.44 134.989C1053.45 129.336 1052.45 124.641 1050.42 120.905C1048.4 117.168 1045.74 114.177 1042.44 111.932C1039.14 109.581 1035.35 107.815 1031.09 106.635C1026.82 105.348 1022.45 104.275 1017.97 103.415C1013.6 102.554 1009.28 101.748 1005.02 100.994C1000.75 100.241 996.964 99.222 993.659 97.9369C990.355 96.6518 987.691 94.9411 985.667 92.8046C983.644 90.6681 982.635 87.7865 982.641 84.1598C982.644 81.7065 983.181 79.3606 984.252 77.1223C985.322 74.884 986.925 72.9131 989.061 71.2097C991.303 69.5065 994.025 68.1774 997.227 67.2223C1000.54 66.1608 1004.38 65.6334 1008.75 65.6402C1013.66 65.6477 1017.76 66.1874 1021.07 67.2592C1024.37 68.331 1026.98 69.6683 1028.9 71.2713C1030.93 72.7678 1032.36 74.4767 1033.21 76.398C1034.06 78.2126 1034.43 79.92 1034.33 81.5198L1047.13 81.5396C1047.24 78.6598 1046.71 75.5655 1045.54 72.257C1044.48 68.9487 1042.46 65.9056 1039.47 63.1276C1036.49 60.243 1032.5 57.8368 1027.49 55.909C1022.47 53.9813 1016.24 53.0116 1008.77 53.0001C1003.54 52.992 998.528 53.5709 993.726 54.7368C989.031 55.9029 984.815 57.7631 981.078 60.3173C977.447 62.765 974.509 65.9606 972.263 69.9038C970.123 73.8471 969.049 78.6456 969.04 84.2989C969.032 89.5256 970.039 93.7938 972.061 97.1036C974.082 100.413 976.745 103.138 980.048 105.276C983.352 107.308 987.136 108.914 991.401 110.093C995.666 111.167 999.984 112.133 1004.36 112.993C1008.73 113.747 1013.05 114.554 1017.31 115.414C1021.58 116.273 1025.36 117.453 1028.67 118.951C1031.97 120.343 1034.64 122.214 1036.66 124.564Z" fill="black"/>
</svg>
