<svg width="100" height="100" viewBox="0 0 100 100" fill="none" xmlns="http://www.w3.org/2000/svg">
<rect width="100" height="100" rx="50" fill="#C2C2C2" fill-opacity="0.5"/>
<path d="M37.5 45H42.5M55 65H30C29.337 65 28.7011 64.7366 28.2322 64.2678C27.7634 63.7989 27.5 63.163 27.5 62.5V37.5C27.5 36.837 27.7634 36.2011 28.2322 35.7322C28.7011 35.2634 29.337 35 30 35H55C55.663 35 56.2989 35.2634 56.7678 35.7322C57.2366 36.2011 57.5 36.837 57.5 37.5V62.5C57.5 63.163 57.2366 63.7989 56.7678 64.2678C56.2989 64.7366 55.663 65 55 65ZM57.5 57.5L69.05 62.3C69.4287 62.4556 69.8399 62.5158 70.2474 62.4753C70.6548 62.4348 71.0461 62.2948 71.3868 62.0677C71.7275 61.8405 72.0072 61.5332 72.2013 61.1727C72.3954 60.8121 72.498 60.4095 72.5 60V40C72.498 39.5905 72.3954 39.1879 72.2013 38.8273C72.0072 38.4668 71.7275 38.1595 71.3868 37.9323C71.0461 37.7052 70.6548 37.5652 70.2474 37.5247C69.8399 37.4842 69.4287 37.5444 69.05 37.7L57.5 42.5V57.5Z" stroke="#868686" stroke-width="4" stroke-linecap="round" stroke-linejoin="round"/>
</svg>
