<svg width="1000" height="1000" viewBox="0 0 1000 1000" fill="none" xmlns="http://www.w3.org/2000/svg">
<rect width="1000" height="1000" rx="500" fill="#C2C2C2" fill-opacity="0.5"/>
<path d="M375 450H425M550 650H300C293.37 650 287.011 647.366 282.322 642.678C277.634 637.989 275 631.63 275 625V375C275 368.37 277.634 362.011 282.322 357.322C287.011 352.634 293.37 350 300 350H550C556.63 350 562.989 352.634 567.678 357.322C572.366 362.011 575 368.37 575 375V625C575 631.63 572.366 637.989 567.678 642.678C562.989 647.366 556.63 650 550 650ZM575 575L690.5 623C694.287 624.556 698.399 625.158 702.474 624.753C706.548 624.348 710.461 622.948 713.868 620.677C717.275 618.405 720.072 615.332 722.013 611.727C723.954 608.121 724.98 604.095 725 600V400C724.98 395.905 723.954 391.879 722.013 388.273C720.072 384.668 717.275 381.595 713.868 379.323C710.461 377.052 706.548 375.652 702.474 375.247C698.399 374.842 694.287 375.444 690.5 377L575 425V575Z" stroke="#868686" stroke-width="25" stroke-linecap="round" stroke-linejoin="round"/>
</svg>
